<?xml version="1.0" standalone="no"?>
<!DOCTYPE svg PUBLIC "-//W3C//DTD SVG 20010904//EN"
 "http://www.w3.org/TR/2001/REC-SVG-20010904/DTD/svg10.dtd">
<svg version="1.0" xmlns="http://www.w3.org/2000/svg"
 width="512.000000pt" height="512.000000pt" viewBox="0 0 512.000000 512.000000"
 preserveAspectRatio="xMidYMid meet">

<g transform="translate(0.000000,512.000000) scale(0.100000,-0.100000)"
fill="#000000" stroke="none">
<path d="M1 4008 c0 -697 4 -1101 10 -1081 12 43 62 90 107 103 24 6 327 10
862 10 l824 0 -281 283 c-302 303 -305 306 -289 392 9 46 62 100 111 114 89
23 80 30 539 -426 231 -230 429 -430 439 -446 13 -18 19 -45 19 -77 0 -32 -6
-59 -19 -77 -10 -16 -208 -216 -439 -446 -459 -456 -450 -449 -539 -426 -49
14 -102 68 -111 114 -16 86 -13 89 289 393 l281 282 -824 0 c-535 0 -838 4
-862 10 -45 13 -95 60 -107 103 -6 20 -10 -509 -10 -1400 l-1 -1433 1693 1
c1450 0 1683 3 1630 14 -84 18 -153 57 -212 120 -94 99 -121 184 -121 380 l0
123 -397 4 -398 4 -80 27 c-195 65 -335 215 -385 412 -17 66 -20 111 -20 289
0 200 2 213 23 250 55 97 203 102 264 9 16 -23 19 -57 23 -248 6 -246 14 -278
82 -347 74 -74 68 -73 500 -76 l388 -3 2 1703 3 1703 22 53 c12 29 39 77 61
106 66 87 122 118 367 200 l220 75 -725 -2 c-695 -2 -727 -3 -764 -21 -53 -27
-104 -80 -130 -135 -18 -41 -21 -70 -26 -266 -6 -244 -8 -255 -73 -296 -25
-15 -45 -19 -87 -17 -67 5 -102 27 -130 84 -18 36 -20 60 -20 246 0 171 3 217
20 282 58 230 240 396 474 435 30 5 -411 9 -1076 10 l-1128 1 1 -1112z"/>
<path d="M4790 5102 c162 -42 281 -164 316 -322 11 -50 12 -38 13 143 l1 197
-197 -1 -198 0 65 -17z"/>
<path d="M4008 4582 c-531 -178 -653 -222 -675 -245 l-28 -27 -2 -1943 c-2
-1387 0 -1952 8 -1975 13 -39 60 -72 104 -72 16 0 322 97 680 217 532 177 655
221 677 244 l28 27 0 1956 c0 1494 -3 1961 -12 1981 -15 33 -56 55 -100 54
-18 0 -324 -98 -680 -217z"/>
<path d="M5106 771 c-14 -110 -112 -239 -222 -294 -56 -28 -1327 -453 -1395
-466 -26 -5 287 -9 794 -10 l837 -1 0 410 c0 226 -2 410 -4 410 -2 0 -6 -22
-10 -49z"/>
</g>
</svg>
